<svg width="50" height="50" viewBox="0 0 50 50" fill="none" xmlns="http://www.w3.org/2000/svg">
<path d="M16.8873 35.1441C19.1642 34.6263 21.3393 33.7262 23.3162 32.4833C24.8055 31.4869 25.2055 29.4725 24.2091 27.9831C23.2519 26.5509 21.3447 26.1188 19.8607 26.9956C15.3069 29.8439 9.52095 29.8439 4.96719 26.9956C3.45463 26.042 1.45812 26.4956 0.502721 28.0046C0.502721 28.0081 0.50272 28.0117 0.499149 28.0135C-0.454462 29.5261 -0.000871505 31.5244 1.51169 32.478L1.51526 32.4815C3.48856 33.7227 5.66186 34.6245 7.93696 35.1388L1.7492 41.3266C0.486648 42.5677 0.463433 44.5945 1.6992 45.8571L1.75277 45.9107C2.36709 46.5428 3.19926 46.8571 4.02787 46.8571C4.85826 46.8571 5.68865 46.5429 6.30475 45.9107L12.4139 39.8318L18.4928 45.9142C19.7785 47.1554 21.8322 47.1214 23.0751 45.8339C24.2859 44.5785 24.2859 42.5873 23.0751 41.3337L16.8873 35.1441ZM12.4139 26.1223C18.5213 26.1152 23.468 21.1686 23.4769 15.063C23.4769 8.96449 18.5124 4 12.4139 4C6.31546 4 1.35097 8.96449 1.35097 15.0665C1.3599 21.1739 6.30832 26.1206 12.4139 26.1241V26.1223ZM12.4139 10.4842C14.9426 10.4878 16.9909 12.5379 16.9927 15.0647C16.9927 17.5934 14.9426 19.6417 12.4139 19.6453C9.88704 19.6417 7.83874 17.5952 7.83338 15.0665C7.83695 12.5361 9.88704 10.4878 12.4139 10.4824V10.4842Z" fill="black"/>
</svg>
